<?xml version="1.0" encoding="utf-8"?>
<svg version="1.1" xmlns:xlink="http://www.w3.org/1999/xlink" width="21px" height="24px" xmlns="http://www.w3.org/2000/svg">
  <g transform="matrix(1 0 0 1 -1408 -567 )">
    <path d="M 21.000000000000004 6.937499955156381  C 21.000000000000004 7.2481399465272744  20.748141114691933 7.4999996412510574  20.43749951276858 7.4999996412510574  C 20.43749951276858 7.4999996412510574  0.5625 7.4999996412510574  0.5625 7.4999996412510574  C 0.2518593725394814 7.4999996412510574  0 7.2481399465272744  0 6.937499955156381  C 0 6.937499955156381  0 5.249999820625529  0 5.249999820625529  C 0 4.007343710425507  1.0073437468329953 2.9999999999999996  2.25 2.9999999999999996  C 2.25 2.9999999999999996  4.5 2.9999999999999996  4.5 2.9999999999999996  C 4.5 2.9999999999999996  4.5 0.5625  4.5 0.5625  C 4.5 0.2518593583966505  4.751859275093198 0  5.062500097446284 0  C 5.062500097446284 0  6.937500292338851 0  6.937500292338851 0  C 7.2481403351216676 0  7.5 0.2518593583966505  7.5 0.5625  C 7.5 0.5625  7.5 2.9999999999999996  7.5 2.9999999999999996  L 13.499999220429732 2.9999999999999996  C 13.499999220429732 2.9999999999999996  13.499999220429732 0.5625  13.499999220429732 0.5625  C 13.499999220429732 0.2518593583966505  13.75185966487833 0  14.062499707661148 0  C 14.062499707661148 0  15.937500292338848 0  15.937500292338848 0  C 16.24814033512167 0  16.50000077957027 0.2518593583966505  16.50000077957027 0.5625  C 16.50000077957027 0.5625  16.50000077957027 2.9999999999999996  16.50000077957027 2.9999999999999996  C 16.50000077957027 2.9999999999999996  18.749999610214864 2.9999999999999996  18.749999610214864 2.9999999999999996  C 19.992656448059567 2.9999999999999996  21.000000000000004 4.007343710425507  21.000000000000004 5.249999820625529  C 21.000000000000004 5.249999820625529  21.000000000000004 6.937499955156381  21.000000000000004 6.937499955156381  Z M 0 9.562499686094673  C 0 9.25185969472378  0.2518593725394814 9  0.5625 9  C 0.5625 9  20.43749951276858 9  20.43749951276858 9  C 20.748141114691933 9  21.000000000000004 9.25185969472378  21.000000000000004 9.562499686094673  C 21.000000000000004 9.562499686094673  21.000000000000004 21.74999982062553  21.000000000000004 21.74999982062553  C 21.000000000000004 22.99265449582978  19.992656448059567 24.000000000000007  18.749999610214864 24.000000000000007  C 18.749999610214864 24.000000000000007  2.25 24.000000000000007  2.25 24.000000000000007  C 1.0073437468329953 24.000000000000007  0 22.99265449582978  0 21.74999982062553  C 0 21.74999982062553  0 9.562499686094673  0 9.562499686094673  Z M 16.18574976729828 13.497515663576726  C 16.18574976729828 13.497515663576726  14.865329235911998 12.16635905937941  14.865329235911998 12.16635905937941  C 14.646563108552042 11.945811689810359  14.290407076003428 11.944358756595296  14.069860410147513 12.163170498783007  C 14.069860410147513 12.163170498783007  9.09937494055777 17.09367245791098  9.09937494055777 17.09367245791098  C 9.09937494055777 17.09367245791098  6.944062714869055 14.920922405713004  6.944062714869055 14.920922405713004  C 6.725296587509102 14.700375036143956  6.369093390959168 14.698922820426782  6.1485467251032535 14.917733845116604  C 6.1485467251032535 14.917733845116604  4.817437505749331 16.238204035829927  4.817437505749331 16.238204035829927  C 4.596890839893417 16.45696914065518  4.5954373311255905 16.813125045292054  4.814249842916591 17.0336724148611  C 4.814249842916591 17.0336724148611  8.686171514814175 20.936906823572293  8.686171514814175 20.936906823572293  C 8.904937642174133 21.157454193141344  9.26109367472275 21.158907843854287  9.481640340578663 20.940095384168696  C 9.481640340578663 20.940095384168696  16.182562884035807 14.292986912599432  16.182562884035807 14.292986912599432  C 16.40310954989172 14.074220372778417  16.404562668874412 13.71806446814154  16.18574976729828 13.49751709857249  Z " fill-rule="nonzero" fill="#000000" stroke="none" transform="matrix(1 0 0 1 1408 567 )" />
  </g>
</svg>