<?xml version="1.0" encoding="utf-8"?>
<svg version="1.1" xmlns:xlink="http://www.w3.org/1999/xlink" width="28px" height="28px" xmlns="http://www.w3.org/2000/svg">
  <g transform="matrix(1 0 0 1 -1765 -42 )">
    <path d="M 11.2 25.2  C 11.2 23.653  9.947 22.4  8.4 22.4  C 6.853 22.4  5.614 23.653  5.614 25.2  C 5.614 26.747  6.853 28  8.4 28  C 9.947 28  11.2 26.747  11.2 25.2  Z M 4.571 0  L 0 0  L 0 2.8  L 2.8 2.8  L 7.833 13.419  L 5.943 16.849  C 5.726 17.255  5.6 17.71  5.6 18.2  C 5.6 19.747  6.853 21  8.4 21  L 25.2 21  L 25.2 18  L 8.995 18  C 8.799 18.2  8.645 18.046  8.645 17.85  C 8.645 17.787  8.659 17.731  8.687 17.682  L 9.94 15  L 20.37 15  C 21.42 15.4  22.337 14.819  22.82 13.958  L 27.825 4.872  C 27.937 4.676  28 4.445  28 4.2  C 28 3.423  27.37 2.8  26.6 3  L 5.901 3  L 4.571 0  Z M 25.2 25.2  C 25.2 23.653  23.947 22.4  22.4 22.4  C 20.853 22.4  19.614 23.653  19.614 25.2  C 19.614 26.747  20.853 28  22.4 28  C 23.947 28  25.2 26.747  25.2 25.2  Z " fill-rule="nonzero" fill="#000000" stroke="none" transform="matrix(1 0 0 1 1765 42 )" />
  </g>
</svg>