<svg width="651" height="581" viewBox="0 0 651 581" fill="none" xmlns="http://www.w3.org/2000/svg">
<g id="pointing">
<path id="Path 2484" d="M259.306 281.09L434.306 246.098L438.106 342.109L424.406 450.871L434.306 580.579H245.573L250.485 430.087C250.485 430.087 208.373 370.67 233.182 310.779L259.306 281.09Z" fill="#6C63FF"/>
<path id="Path 2485" d="M649.524 53.331C650.401 57.3609 650.384 61.534 649.474 65.5565C648.563 69.579 646.782 73.3531 644.256 76.6128C641.729 79.8725 638.519 82.5387 634.85 84.4235C631.182 86.3084 627.145 87.366 623.024 87.522L455.21 282.122L416.194 234.772L593.418 58.38C593.615 51.4383 596.351 44.81 601.109 39.7512C605.867 34.6925 612.315 31.5549 619.231 30.933C626.148 30.3111 633.052 32.2481 638.636 36.377C644.22 40.5059 648.095 46.5397 649.527 53.335L649.524 53.331Z" fill="#FEB8B8"/>
<path id="Path 2486" d="M491.745 260.883C491.785 262.7 491.431 264.505 490.71 266.173C489.988 267.842 488.915 269.335 487.564 270.551L440.377 313.029C437.448 316.594 433.846 319.548 429.776 321.721C425.707 323.895 421.248 325.245 416.656 325.695C412.065 326.146 407.429 325.687 403.014 324.346C398.6 323.005 394.492 320.808 390.927 317.879C387.362 314.951 384.408 311.348 382.235 307.279C380.061 303.209 378.711 298.75 378.261 294.158C377.81 289.567 378.269 284.931 379.61 280.516C380.951 276.102 383.148 271.994 386.077 268.429L419.018 213.919C419.958 212.363 421.223 211.028 422.725 210.005C424.228 208.982 425.933 208.294 427.726 207.99C429.518 207.685 431.355 207.77 433.111 208.239C434.867 208.709 436.502 209.551 437.903 210.709L487.156 251.409C488.558 252.567 489.694 254.013 490.486 255.65C491.278 257.286 491.707 259.074 491.745 260.892L491.745 260.883Z" fill="#6C63FF"/>
<path id="Path 2487" d="M26.5927 63.5101C30.6559 62.8012 34.8251 62.9917 38.8066 64.0684C42.7881 65.145 46.4852 67.0815 49.6374 69.7415C52.7895 72.4015 55.3201 75.7203 57.0509 79.4641C58.7817 83.2079 59.6706 87.2857 59.655 91.4102L247.116 267.158L198.187 304.174L29.3064 119.78C22.3786 119.296 15.8694 116.286 11.0123 111.323C6.15528 106.359 3.28798 99.7859 2.95381 92.8492C2.61965 85.9125 4.84186 79.0943 9.1993 73.6867C13.5567 68.2792 19.7466 64.6581 26.5957 63.5098L26.5927 63.5101Z" fill="#FEB8B8"/>
<path id="Ellipse 85" d="M340.63 198.052C379.976 198.052 411.872 166.156 411.872 126.81C411.872 87.4641 379.976 55.568 340.63 55.568C301.284 55.568 269.388 87.4641 269.388 126.81C269.388 166.156 301.284 198.052 340.63 198.052Z" fill="#3F3D56"/>
<path id="Path 2488" d="M227.416 229.768C229.234 229.804 231.022 230.232 232.66 231.022C234.297 231.812 235.744 232.946 236.903 234.346L277.386 283.256C280.848 286.309 283.674 290.014 285.704 294.16C287.733 298.305 288.925 302.81 289.213 307.417C289.501 312.023 288.878 316.641 287.38 321.007C285.882 325.373 283.538 329.401 280.483 332.86C277.428 336.32 273.721 339.144 269.575 341.17C265.428 343.197 260.922 344.386 256.315 344.671C251.709 344.956 247.091 344.33 242.726 342.829C238.361 341.328 234.335 338.982 230.877 335.925C230.776 335.836 230.676 335.746 230.576 335.656L177.469 300.478C175.954 299.474 174.673 298.155 173.713 296.611C172.753 295.068 172.137 293.335 171.907 291.532C171.677 289.729 171.838 287.897 172.38 286.162C172.922 284.427 173.831 282.829 175.046 281.477L217.751 233.956C218.966 232.603 220.458 231.528 222.126 230.805C223.794 230.081 225.598 229.726 227.416 229.764L227.416 229.768Z" fill="#6C63FF"/>
<path id="Ellipse 491" d="M333.89 236.29C369.513 236.29 398.392 207.411 398.392 171.788C398.392 136.165 369.513 107.286 333.89 107.286C298.267 107.286 269.388 136.165 269.388 171.788C269.388 207.411 298.267 236.29 333.89 236.29Z" fill="#FEB8B8"/>
<path id="Path 574" d="M377.817 0C372.433 7.68903 364.452 13.1746 355.345 15.447C339.632 19.655 355.217 43.266 355.217 43.266C355.217 43.266 349.55 34.68 357.724 25.587C365.898 16.494 379.053 10.278 377.817 0Z" fill="#3F3D56"/>
<path id="Ellipse 87" d="M352.433 68.784C363.398 68.784 372.287 59.8951 372.287 48.93C372.287 37.9649 363.398 29.076 352.433 29.076C341.468 29.076 332.579 37.9649 332.579 48.93C332.579 59.8951 341.468 68.784 352.433 68.784Z" fill="#3F3D56"/>
<path id="Path 575" d="M382.101 65.572C365.915 59.45 338.965 56.346 325.101 58.472L327.001 44.587C340.331 51.476 367.158 54.714 384.001 51.687L382.101 65.572Z" fill="#6C63FF"/>
<path id="Path 576" d="M344.705 68.169C344.705 68.169 324.42 101.909 277.251 114.54C230.082 127.171 276.866 198.053 276.866 198.053C276.866 198.053 259.854 172.278 284.392 144.981C308.93 117.684 348.417 99.022 344.705 68.169Z" fill="#3F3D56"/>
<path id="Path 577" d="M352.392 68.49C352.392 68.49 371.879 114.834 393.273 119.216C414.667 123.598 413.044 196.826 379.588 207.807C379.588 207.807 403.988 164.877 383.131 136.086C362.274 107.295 349.106 84.535 352.392 68.49Z" fill="#3F3D56"/>
</g>
</svg>
